<?xml version="1.0" standalone="no"?>
<!DOCTYPE svg PUBLIC "-//W3C//DTD SVG 20010904//EN"
 "http://www.w3.org/TR/2001/REC-SVG-20010904/DTD/svg10.dtd">
<svg version="1.0" xmlns="http://www.w3.org/2000/svg"
 width="1772.000000pt" height="945.000000pt" viewBox="0 0 1772.000000 945.000000"
 preserveAspectRatio="xMidYMid meet">

<g transform="translate(0.000000,945.000000) scale(0.100000,-0.100000)"
fill="#000000" stroke="none">
<path d="M0 4725 l0 -4725 8860 0 8860 0 0 4725 0 4725 -8860 0 -8860 0 0
-4725z m5920 824 c7 -11 10 -22 8 -23 -2 -1 -25 -15 -52 -31 -93 -53 -196
-168 -196 -217 0 -35 -30 -32 -64 6 -19 20 -41 36 -50 36 -26 0 -48 -67 -44
-136 5 -75 36 -128 106 -179 52 -38 168 -85 210 -85 40 -1 69 -26 56 -48 -15
-24 -44 -26 -116 -8 -320 81 -447 362 -250 554 114 111 359 193 392 131z m426
-3 c100 -34 144 -58 207 -116 75 -69 107 -134 107 -220 0 -86 -32 -151 -106
-219 -113 -103 -331 -174 -377 -123 -16 18 -13 21 63 71 89 58 154 131 170
192 13 47 27 49 66 8 51 -54 61 -55 85 -7 70 137 -68 319 -271 358 -91 18
-117 39 -88 68 18 18 67 14 144 -12z m5194 -448 l0 -373 38 56 c20 31 80 113
132 182 l94 127 105 0 c98 0 103 -1 89 -17 -8 -10 -67 -79 -130 -154 -64 -74
-121 -145 -128 -155 -11 -18 5 -46 149 -262 l161 -242 -107 0 -108 1 -114 184
c-63 102 -117 185 -121 185 -4 0 -19 -15 -34 -34 -25 -34 -26 -38 -26 -185 l0
-151 -90 0 -90 0 0 605 0 605 90 0 90 0 0 -372z m-5332 320 c23 -13 42 -25 42
-28 0 -3 -36 -25 -81 -49 -44 -23 -78 -45 -76 -48 3 -2 55 3 116 11 150 21
158 21 221 -16 l55 -32 -50 -8 c-27 -4 -116 -12 -197 -19 l-148 -12 -9 -36
c-5 -20 -16 -70 -25 -112 l-17 -77 -54 30 c-30 16 -55 33 -55 36 0 4 9 41 20
82 10 41 17 76 15 78 -2 2 -31 -12 -65 -32 -42 -25 -73 -36 -100 -36 -39 0
-90 17 -90 30 0 4 62 43 138 86 75 43 173 100 217 126 44 27 85 48 90 48 6 0
29 -10 53 -22z m1494 -275 l3 -268 44 65 c25 36 109 156 189 268 l144 202 104
0 c57 0 104 -3 104 -6 0 -3 -81 -111 -180 -240 -99 -128 -180 -239 -180 -245
0 -9 304 -522 378 -636 l14 -23 -104 0 -104 0 -158 270 -158 270 -49 -61 -49
-62 0 -208 0 -209 -85 0 -85 0 0 575 0 575 85 0 85 0 2 -267z m1936 -120 l3
-83 -46 0 c-56 0 -102 -19 -137 -56 -52 -56 -58 -93 -58 -370 l0 -254 -90 0
-90 0 0 378 c0 207 -3 394 -6 415 l-7 37 82 0 81 0 1 -72 c0 -61 2 -70 12 -54
65 103 131 149 207 144 l45 -3 3 -82z m635 49 c134 -66 207 -205 207 -391 0
-256 -140 -426 -361 -439 -231 -13 -384 140 -396 398 -12 233 84 396 270 456
26 9 74 13 128 11 74 -3 96 -8 152 -35z m854 28 c75 -17 77 -19 63 -83 -18
-77 -19 -78 -65 -62 -112 40 -241 2 -302 -88 -87 -129 -62 -357 49 -437 72
-52 163 -60 284 -25 18 6 21 0 32 -56 6 -34 9 -66 6 -70 -2 -4 -38 -15 -80
-25 -303 -67 -524 106 -524 411 0 117 34 221 101 306 86 109 271 164 436 129z
m1407 -10 c36 -12 66 -23 66 -26 0 -2 -8 -32 -17 -65 -18 -65 -13 -63 -88 -35
-78 29 -169 14 -195 -33 -17 -34 -11 -78 15 -110 14 -16 63 -48 110 -70 148
-70 204 -141 205 -257 0 -117 -69 -206 -189 -241 -92 -26 -286 -5 -334 37 -7
6 18 116 28 128 1 1 36 -9 78 -23 85 -28 133 -31 181 -11 43 18 66 51 66 97 0
54 -39 94 -135 140 -145 69 -204 140 -205 245 -1 182 199 290 414 224z m-3980
-112 c77 -249 135 -445 141 -480 9 -47 21 -49 29 -5 3 17 44 158 90 312 l83
280 92 3 c50 1 91 0 91 -4 0 -3 -61 -178 -136 -388 -75 -209 -141 -394 -146
-409 l-10 -28 -86 3 -86 3 -138 395 c-76 217 -141 403 -144 413 -5 15 4 17 90
17 l95 0 35 -112z m-1752 -465 l28 -27 0 -156 0 -156 -28 -27 -28 -27 -730 0
-730 0 -27 28 c-27 28 -27 29 -27 182 0 153 0 154 27 182 l27 28 730 0 730 0
28 -27z"/>
<path d="M10035 4961 c-89 -40 -130 -130 -130 -286 0 -163 53 -266 153 -295
85 -26 160 19 208 122 26 57 29 74 29 168 0 125 -20 193 -72 251 -53 58 -118
72 -188 40z"/>
<path d="M5425 4478 c-3 -8 -4 -81 -3 -163 l3 -150 50 0 50 0 0 160 0 160 -48
3 c-33 2 -49 -1 -52 -10z"/>
<path d="M5625 4478 c-3 -8 -4 -81 -3 -163 l3 -150 50 0 50 0 0 160 0 160 -48
3 c-33 2 -49 -1 -52 -10z"/>
<path d="M5825 4478 c-3 -8 -4 -81 -3 -163 l3 -150 50 0 50 0 0 160 0 160 -48
3 c-33 2 -49 -1 -52 -10z"/>
<path d="M6025 4478 c-3 -8 -4 -81 -3 -163 l3 -150 50 0 50 0 0 160 0 160 -48
3 c-33 2 -49 -1 -52 -10z"/>
<path d="M6461 4479 c-162 -34 -163 -272 0 -308 99 -22 191 52 191 154 0 101
-92 175 -191 154z"/>
</g>
</svg>
