<svg id="svg" version="1.1" xmlns="http://www.w3.org/2000/svg" xmlns:xlink="http://www.w3.org/1999/xlink" width="400" height="400" viewBox="0, 0, 400,400"><g id="svgg"><path id="path0" d="M184.400 148.055 C 166.059 152.781,156.021 160.178,152.585 171.502 C 151.917 173.702,151.775 182.214,152.400 182.600 C 152.620 182.736,152.800 183.276,152.800 183.800 C 152.800 184.324,152.980 184.864,153.200 185.000 C 153.420 185.136,153.600 185.497,153.600 185.802 C 153.600 189.515,162.661 198.331,170.200 201.953 C 174.949 204.234,176.789 204.859,182.800 206.233 C 188.014 207.425,188.161 207.424,188.960 206.205 C 190.069 204.512,188.345 202.818,185.481 202.786 C 177.763 202.700,165.418 195.693,160.840 188.800 C 159.431 186.680,159.022 185.899,158.050 183.481 C 156.814 180.407,157.560 174.192,159.708 169.666 C 161.694 165.481,162.739 165.768,168.553 172.100 C 169.109 172.705,169.838 173.200,170.174 173.200 C 170.519 173.200,170.882 172.722,171.009 172.100 C 171.956 167.451,178.728 158.811,184.411 155.001 C 185.395 154.342,186.290 153.694,186.400 153.561 C 186.510 153.428,186.780 153.248,187.000 153.160 C 188.900 152.399,192.020 150.200,191.920 149.693 C 191.520 147.661,188.490 147.002,184.400 148.055 M217.451 148.031 C 215.243 149.768,217.944 152.400,221.935 152.400 C 222.929 152.400,224.296 152.568,224.972 152.773 C 225.647 152.978,227.010 153.372,228.000 153.648 C 239.837 156.950,249.944 169.020,249.127 178.875 C 248.922 181.346,246.357 186.981,245.140 187.632 C 243.971 188.258,238.800 185.175,238.800 183.853 C 238.800 183.345,236.857 181.600,236.291 181.600 C 235.984 181.600,235.455 182.524,235.078 183.719 C 233.069 190.093,226.211 197.527,217.632 202.630 C 214.225 204.657,213.941 205.060,215.150 206.155 C 218.330 209.032,234.285 204.258,242.981 197.827 C 252.509 190.781,257.158 178.888,253.624 170.600 C 251.353 165.275,249.326 162.314,245.681 159.000 C 240.443 154.236,232.400 150.440,223.305 148.438 C 221.377 148.013,219.518 147.554,219.173 147.418 C 218.818 147.278,218.070 147.544,217.451 148.031 M209.882 159.815 C 208.607 160.577,207.392 161.200,207.182 161.200 C 206.972 161.200,206.800 161.380,206.800 161.600 C 206.800 161.820,206.625 162.000,206.412 162.000 C 206.198 162.000,204.623 162.834,202.912 163.854 C 201.200 164.874,198.810 166.252,197.600 166.915 C 196.390 167.579,194.950 168.430,194.400 168.806 C 193.850 169.182,191.960 170.303,190.200 171.296 C 177.791 178.299,175.515 179.716,176.024 180.121 C 177.922 181.633,183.309 182.544,185.105 181.657 C 187.492 180.479,189.001 179.651,192.235 177.744 C 197.256 174.782,197.481 174.986,196.049 181.200 C 193.946 190.321,193.907 190.095,198.000 192.445 C 202.088 194.791,202.256 194.807,202.538 192.900 C 202.825 190.958,203.446 187.822,203.944 185.800 C 204.320 184.276,205.984 176.721,205.995 176.490 C 206.016 176.040,208.858 175.542,213.516 175.173 C 222.901 174.429,236.946 173.271,237.100 173.228 C 237.646 173.075,236.827 172.327,235.100 171.401 C 233.945 170.781,232.489 169.919,231.865 169.485 C 230.903 168.816,230.353 168.737,228.265 168.970 C 225.197 169.312,219.888 169.850,214.400 170.374 C 212.090 170.595,209.277 170.889,208.148 171.028 C 205.020 171.412,204.785 170.100,207.718 168.633 C 208.423 168.281,209.900 167.457,211.000 166.802 C 212.100 166.147,214.313 164.872,215.918 163.968 C 218.717 162.391,219.348 161.200,217.384 161.200 C 217.100 161.200,216.807 161.065,216.733 160.900 C 216.618 160.639,212.580 158.375,212.303 158.415 C 212.246 158.423,211.157 159.053,209.882 159.815 M142.636 234.629 C 137.270 236.595,136.793 237.994,136.830 251.626 C 136.867 264.959,137.268 266.416,141.436 268.375 C 143.830 269.500,261.510 269.698,264.183 268.581 C 268.714 266.688,269.200 265.058,269.200 251.747 C 269.200 237.882,268.614 236.270,262.954 234.566 C 260.124 233.714,144.969 233.775,142.636 234.629 M159.400 252.200 L 159.400 266.200 154.800 266.200 L 150.200 266.200 150.095 252.087 L 149.990 237.975 154.695 238.087 L 159.400 238.200 159.400 252.200 M176.305 252.100 L 176.200 266.200 171.600 266.200 L 167.000 266.200 166.895 252.603 C 166.837 245.124,166.876 238.779,166.982 238.503 C 167.121 238.139,168.454 238.000,171.793 238.000 L 176.410 238.000 176.305 252.100 M193.357 238.633 C 193.726 239.593,193.636 265.325,193.262 265.914 C 193.020 266.294,191.753 266.398,188.368 266.314 L 183.800 266.200 183.695 252.603 C 183.637 245.124,183.676 238.779,183.782 238.503 C 184.098 237.680,193.038 237.801,193.357 238.633 M210.200 252.200 L 210.200 266.200 205.600 266.200 L 201.000 266.200 200.895 252.087 L 200.790 237.975 205.495 238.087 L 210.200 238.200 210.200 252.200 M245.105 238.337 C 245.487 238.522,246.648 239.084,247.685 239.584 C 257.394 244.275,257.834 258.793,248.434 264.322 C 236.413 271.393,222.390 258.940,228.162 246.320 C 229.723 242.907,234.194 238.800,236.348 238.800 C 236.791 238.800,237.264 238.620,237.400 238.400 C 237.699 237.916,244.128 237.863,245.105 238.337 " stroke="none" fill="#fbf9f7" fill-rule="evenodd"></path><path id="path1" d="M143.200 116.803 C 143.200 117.021,142.583 117.200,141.829 117.200 C 141.074 117.200,140.187 117.470,139.857 117.800 C 139.527 118.130,138.794 118.400,138.229 118.400 C 137.663 118.400,137.200 118.580,137.200 118.800 C 137.200 119.020,136.750 119.200,136.200 119.200 C 135.650 119.200,135.200 119.380,135.200 119.600 C 135.200 119.820,134.880 120.000,134.488 120.000 C 134.097 120.000,133.517 120.360,133.200 120.800 C 132.883 121.240,132.297 121.600,131.897 121.600 C 131.076 121.600,130.344 122.209,126.277 126.277 C 122.209 130.344,121.600 131.076,121.600 131.897 C 121.600 132.297,121.240 132.883,120.800 133.200 C 120.360 133.517,120.000 134.097,120.000 134.488 C 120.000 134.880,119.820 135.200,119.600 135.200 C 119.380 135.200,119.200 135.650,119.200 136.200 C 119.200 136.750,119.020 137.200,118.800 137.200 C 118.580 137.200,118.400 137.725,118.400 138.367 C 118.400 139.008,118.203 139.599,117.962 139.679 C 117.722 139.759,117.324 140.629,117.079 141.613 C 116.487 143.990,116.217 262.377,116.803 262.963 C 117.021 263.181,117.200 263.851,117.200 264.451 C 117.200 265.052,117.470 265.813,117.800 266.143 C 118.130 266.473,118.400 267.116,118.400 267.571 C 118.400 268.027,118.580 268.400,118.800 268.400 C 119.020 268.400,119.200 268.940,119.200 269.600 C 119.200 270.260,119.380 270.800,119.600 270.800 C 119.820 270.800,120.000 271.120,120.000 271.512 C 120.000 271.903,120.360 272.483,120.800 272.800 C 121.240 273.117,121.600 273.697,121.600 274.088 C 121.600 274.480,121.780 274.800,122.000 274.800 C 122.220 274.800,122.400 274.988,122.400 275.217 C 122.400 276.453,130.705 284.383,132.012 284.395 C 132.348 284.398,132.883 284.760,133.200 285.200 C 133.517 285.640,134.097 286.000,134.488 286.000 C 134.880 286.000,135.200 286.180,135.200 286.400 C 135.200 286.620,135.639 286.800,136.176 286.800 C 136.713 286.800,137.264 286.980,137.400 287.200 C 137.536 287.420,138.087 287.600,138.624 287.600 C 139.161 287.600,139.600 287.780,139.600 288.000 C 139.600 288.220,140.421 288.400,141.424 288.400 C 142.427 288.400,143.148 288.561,143.026 288.758 C 142.340 289.867,261.880 290.109,262.800 289.000 C 263.086 288.655,263.958 288.400,264.849 288.400 C 265.702 288.400,266.400 288.220,266.400 288.000 C 266.400 287.780,266.839 287.600,267.376 287.600 C 267.913 287.600,268.464 287.420,268.600 287.200 C 268.736 286.980,269.287 286.800,269.824 286.800 C 270.361 286.800,270.800 286.620,270.800 286.400 C 270.800 286.180,271.120 286.000,271.512 286.000 C 271.903 286.000,272.483 285.640,272.800 285.200 C 273.117 284.760,273.623 284.400,273.925 284.400 C 275.066 284.400,281.665 278.368,283.005 276.100 C 283.427 275.385,283.914 274.800,284.086 274.800 C 284.259 274.800,284.400 274.480,284.400 274.088 C 284.400 273.697,284.760 273.117,285.200 272.800 C 285.640 272.483,286.000 271.903,286.000 271.512 C 286.000 271.120,286.180 270.800,286.400 270.800 C 286.620 270.800,286.800 270.361,286.800 269.824 C 286.800 269.287,286.980 268.736,287.200 268.600 C 287.420 268.464,287.600 267.913,287.600 267.376 C 287.600 266.839,287.780 266.400,288.000 266.400 C 288.220 266.400,288.400 265.757,288.400 264.971 C 288.400 264.186,288.670 263.273,289.000 262.943 C 289.911 262.032,289.911 143.968,289.000 143.057 C 288.670 142.727,288.400 141.814,288.400 141.029 C 288.400 140.243,288.220 139.600,288.000 139.600 C 287.780 139.600,287.600 139.161,287.600 138.624 C 287.600 138.087,287.420 137.536,287.200 137.400 C 286.980 137.264,286.800 136.713,286.800 136.176 C 286.800 135.639,286.620 135.200,286.400 135.200 C 286.180 135.200,286.000 134.880,286.000 134.488 C 286.000 134.097,285.640 133.517,285.200 133.200 C 284.760 132.883,284.398 132.348,284.395 132.012 C 284.392 131.675,283.987 130.894,283.495 130.276 C 282.111 128.538,277.200 123.437,277.200 123.739 C 277.200 123.886,276.633 123.465,275.941 122.803 C 275.248 122.142,274.388 121.600,274.029 121.600 C 273.670 121.600,273.117 121.240,272.800 120.800 C 272.483 120.360,271.903 120.000,271.512 120.000 C 271.120 120.000,270.800 119.820,270.800 119.600 C 270.800 119.380,270.260 119.200,269.600 119.200 C 268.940 119.200,268.400 119.020,268.400 118.800 C 268.400 118.580,268.027 118.400,267.571 118.400 C 267.116 118.400,266.473 118.130,266.143 117.800 C 265.813 117.470,265.026 117.200,264.395 117.200 C 263.764 117.200,263.137 117.021,263.002 116.803 C 262.662 116.253,143.200 116.254,143.200 116.803 M190.658 147.236 C 193.010 148.690,193.485 150.532,191.700 151.281 C 190.623 151.733,190.619 151.746,191.523 151.902 C 193.854 152.305,192.543 154.323,187.954 157.399 C 180.360 162.489,176.342 166.669,173.534 172.400 C 170.674 178.237,170.215 178.377,166.306 174.600 C 162.541 170.963,161.285 171.241,159.705 176.062 C 159.011 178.177,158.874 178.360,158.596 177.538 C 158.017 175.827,157.869 179.142,158.414 181.600 C 160.713 191.965,171.381 199.846,186.400 202.275 C 189.544 202.784,190.797 204.812,189.341 207.034 C 188.821 207.827,188.800 208.014,189.241 207.920 C 190.367 207.679,190.126 209.843,188.922 210.791 C 187.585 211.845,185.988 211.729,180.035 210.146 C 164.055 205.896,153.598 196.772,151.076 184.878 C 150.719 183.194,150.732 182.689,151.141 182.437 C 151.559 182.178,151.561 181.661,151.155 179.695 C 150.756 177.762,150.755 176.800,151.151 174.936 C 151.961 171.129,152.299 170.067,153.764 166.730 C 155.466 162.851,161.505 156.835,166.500 154.039 C 167.325 153.578,168.585 152.869,169.300 152.465 C 170.754 151.644,176.752 149.262,178.600 148.773 C 179.260 148.598,181.214 148.093,182.943 147.651 C 184.672 147.209,186.187 146.747,186.310 146.624 C 186.832 146.101,189.409 146.464,190.658 147.236 M222.800 147.372 C 241.023 152.028,251.124 159.869,254.784 172.200 C 255.298 173.932,255.175 181.515,254.606 183.163 C 254.350 183.905,254.393 184.052,254.794 183.804 C 255.899 183.120,254.963 187.405,253.219 191.008 C 251.166 195.250,246.077 200.667,241.200 203.803 C 233.204 208.943,219.216 212.870,215.586 210.993 C 213.832 210.086,213.353 206.713,215.072 207.372 C 215.465 207.523,215.301 207.191,214.668 206.559 C 213.259 205.150,213.720 203.200,215.462 203.200 C 215.758 203.200,216.000 203.020,216.000 202.800 C 216.000 202.580,216.184 202.400,216.409 202.400 C 217.676 202.400,225.620 196.315,228.200 193.367 C 229.300 192.110,230.380 190.878,230.600 190.629 C 231.224 189.922,232.426 187.874,232.671 187.100 C 232.793 186.715,233.024 186.400,233.183 186.400 C 233.342 186.400,233.695 185.635,233.968 184.700 C 235.286 180.180,236.306 179.978,239.537 183.601 C 242.049 186.419,244.147 187.630,245.003 186.758 C 246.643 185.087,248.072 181.363,248.211 178.400 C 248.318 176.125,248.275 175.786,248.033 177.000 C 247.811 178.112,247.696 178.296,247.657 177.603 C 247.216 169.859,235.156 159.347,224.433 157.359 C 219.041 156.359,217.819 155.971,216.700 154.901 C 215.452 153.709,215.259 152.217,216.300 151.816 C 216.967 151.559,216.967 151.527,216.300 151.153 C 215.283 150.582,215.441 149.146,216.686 147.643 C 217.897 146.182,218.107 146.172,222.800 147.372 M213.938 158.335 C 214.522 158.739,215.270 159.185,215.600 159.326 C 219.392 160.948,220.314 162.370,218.219 163.364 C 216.660 164.104,216.375 164.436,217.566 164.125 C 218.070 163.993,218.485 164.211,218.780 164.762 C 219.598 166.291,218.214 167.735,214.776 168.941 L 213.000 169.565 216.800 169.354 C 218.890 169.238,221.464 168.976,222.520 168.772 C 227.569 167.794,231.265 168.242,234.667 170.242 C 239.846 173.287,240.153 173.957,236.400 174.016 L 234.600 174.045 236.000 174.523 C 237.785 175.131,238.231 176.986,236.727 177.542 C 235.845 177.868,227.900 178.648,215.200 179.656 C 206.671 180.332,207.206 179.791,204.987 190.000 C 203.418 197.220,202.910 198.400,201.369 198.400 C 197.666 198.400,190.666 191.653,194.300 191.587 C 194.952 191.575,194.949 191.536,194.267 191.019 C 193.472 190.416,193.865 186.988,195.395 181.200 C 195.621 180.345,195.583 180.287,195.130 180.800 C 194.838 181.130,193.610 181.896,192.400 182.502 C 191.190 183.108,189.128 184.173,187.818 184.869 C 182.059 187.926,172.948 185.594,176.278 181.914 C 176.919 181.206,176.908 181.153,176.078 180.936 C 173.995 180.392,176.168 178.214,181.400 175.601 C 182.060 175.271,182.690 174.911,182.800 174.801 C 182.910 174.690,183.430 174.358,183.955 174.062 C 184.480 173.767,185.503 173.191,186.229 172.784 C 186.954 172.376,188.276 171.583,189.166 171.021 C 190.056 170.460,190.895 170.000,191.030 170.000 C 191.166 170.000,191.754 169.661,192.338 169.247 C 193.347 168.531,194.237 168.008,198.400 165.681 C 199.390 165.127,201.282 164.028,202.605 163.237 C 203.928 162.447,205.548 161.530,206.205 161.201 C 206.862 160.871,207.490 160.495,207.600 160.365 C 207.892 160.020,212.141 157.668,212.538 157.631 C 212.724 157.614,213.354 157.931,213.938 158.335 M264.716 234.365 C 266.233 235.147,268.206 237.095,269.100 238.695 C 269.469 239.355,269.600 242.747,269.600 251.659 L 269.600 263.730 268.565 265.496 C 267.969 266.512,266.747 267.758,265.687 268.431 L 263.843 269.600 203.057 269.600 L 142.270 269.600 140.504 268.565 C 139.488 267.969,138.242 266.747,137.569 265.687 L 136.400 263.843 136.400 251.734 C 136.400 237.305,136.482 237.019,141.365 234.317 C 143.400 233.191,262.528 233.237,264.716 234.365 M150.400 251.944 C 150.400 267.528,149.908 266.003,154.933 265.994 C 159.619 265.985,159.226 267.304,159.105 251.973 L 159.000 238.600 154.700 238.486 L 150.400 238.373 150.400 251.944 M167.480 238.654 C 166.824 239.310,167.165 265.501,167.833 265.757 C 168.762 266.114,174.915 266.041,175.505 265.667 C 175.900 265.417,175.988 262.406,175.905 251.973 L 175.800 238.600 171.780 238.487 C 169.569 238.425,167.634 238.500,167.480 238.654 M184.252 239.300 C 183.823 240.903,183.969 264.395,184.414 265.226 C 184.779 265.907,185.280 266.000,188.600 266.000 C 193.537 266.000,193.201 266.999,193.195 252.326 C 193.188 236.946,193.667 238.400,188.600 238.400 C 184.679 238.400,184.482 238.441,184.252 239.300 M201.200 251.944 C 201.200 267.528,200.708 266.003,205.733 265.994 C 210.419 265.985,210.026 267.304,209.905 251.973 L 209.800 238.600 205.500 238.486 L 201.200 238.373 201.200 251.944 M237.800 238.881 C 223.522 243.969,224.291 262.263,238.924 265.608 C 243.895 266.744,253.200 261.913,253.200 258.195 C 253.200 257.868,253.360 257.600,253.556 257.600 C 253.927 257.600,254.286 255.992,254.664 252.636 C 255.296 247.040,250.316 240.196,244.758 239.021 C 242.339 238.509,239.030 238.442,237.800 238.881 " stroke="none" fill="#fb5b04" fill-rule="evenodd"></path><path id="path2" d="M216.100 151.865 C 215.238 152.212,215.553 153.806,216.700 154.901 C 217.819 155.971,219.041 156.359,224.433 157.359 C 235.227 159.360,245.987 168.699,247.752 177.600 C 247.861 178.150,247.898 177.191,247.833 175.470 C 247.458 165.434,235.932 155.111,222.985 153.214 C 220.100 152.792,219.034 152.546,217.200 151.881 C 216.870 151.761,216.375 151.754,216.100 151.865 M186.513 154.347 C 179.439 158.992,172.000 167.843,172.000 171.615 C 172.000 174.894,170.142 174.686,166.720 171.025 C 163.671 167.763,161.857 166.878,161.041 168.255 C 159.476 170.898,158.222 175.753,158.657 177.485 C 158.875 178.355,159.015 178.165,159.703 176.068 C 161.285 171.241,162.540 170.962,166.306 174.600 C 170.215 178.377,170.674 178.237,173.534 172.400 C 176.342 166.669,180.360 162.489,187.954 157.399 C 191.716 154.878,192.214 154.408,192.325 153.277 C 192.528 151.214,190.801 151.532,186.513 154.347 M216.800 164.290 C 215.307 164.856,207.200 169.706,207.200 170.033 C 207.200 171.551,217.417 168.461,218.657 166.569 C 219.680 165.008,218.554 163.626,216.800 164.290 M227.400 174.660 C 226.300 174.723,223.690 174.955,221.600 175.176 C 219.510 175.396,215.408 175.785,212.484 176.040 C 206.679 176.546,206.000 176.935,206.000 179.754 C 206.000 180.646,205.400 183.687,204.334 188.200 C 204.126 189.080,203.796 190.520,203.600 191.400 C 202.571 196.013,202.659 195.979,198.382 193.407 C 194.742 191.218,193.600 191.077,193.600 192.819 C 193.600 194.309,194.639 195.336,197.930 197.100 C 202.595 199.600,202.986 199.207,204.987 190.000 C 207.206 179.791,206.671 180.332,215.200 179.656 C 236.595 177.958,237.600 177.804,237.600 176.224 C 237.600 174.460,235.757 174.177,227.400 174.660 M191.991 178.522 C 185.154 182.690,184.403 182.863,177.252 181.924 C 176.042 181.765,175.216 182.902,175.833 183.880 C 177.607 186.692,183.551 187.200,187.800 184.902 C 189.120 184.188,191.190 183.108,192.400 182.502 C 194.769 181.315,195.117 180.946,195.886 178.800 C 196.971 175.773,196.552 175.743,191.991 178.522 M150.800 183.358 C 150.800 187.650,154.759 194.947,159.577 199.537 C 166.995 206.603,185.318 213.630,188.922 210.791 C 190.882 209.247,190.312 207.971,187.591 207.809 C 174.167 207.005,158.724 197.824,153.600 187.600 C 152.884 186.170,152.140 184.687,151.949 184.305 C 151.757 183.923,151.600 183.338,151.600 183.005 C 151.600 182.672,151.420 182.400,151.200 182.400 C 150.980 182.400,150.800 182.831,150.800 183.358 M253.464 186.381 C 250.624 191.890,246.939 196.006,241.648 199.578 C 234.118 204.661,220.312 208.837,215.491 207.490 C 213.419 206.911,213.501 209.914,215.586 210.993 C 219.210 212.867,233.300 208.916,241.120 203.834 C 248.902 198.775,255.532 189.798,255.123 184.874 L 255.000 183.400 253.464 186.381 " stroke="none" fill="#bc4904" fill-rule="evenodd"></path><path id="path3" d="M186.310 146.624 C 186.187 146.747,184.672 147.209,182.943 147.651 C 178.279 148.844,177.498 149.069,176.400 149.529 C 174.738 150.227,176.112 150.050,178.634 149.241 C 186.889 146.595,189.483 146.392,191.337 148.246 C 192.810 149.719,192.684 150.203,190.500 151.460 C 187.294 153.305,183.008 156.265,182.400 157.053 C 181.940 157.649,182.023 157.630,182.812 156.957 C 184.326 155.666,188.360 153.034,190.700 151.813 C 193.455 150.374,193.442 148.957,190.658 147.236 C 189.409 146.464,186.832 146.101,186.310 146.624 M216.686 147.643 C 215.199 149.438,215.266 150.618,216.900 151.409 L 218.200 152.039 217.100 151.186 C 215.215 149.725,216.773 146.481,219.151 146.916 C 220.920 147.240,229.295 149.517,231.162 150.181 C 232.132 150.526,233.002 150.732,233.096 150.638 C 233.417 150.316,222.008 146.986,218.986 146.520 C 217.985 146.365,217.582 146.562,216.686 147.643 M233.633 150.949 C 234.045 151.317,236.400 152.400,236.400 152.221 C 236.400 151.990,234.182 150.800,233.753 150.800 C 233.596 150.800,233.542 150.867,233.633 150.949 M218.765 152.526 C 218.944 152.705,219.881 152.791,220.846 152.718 L 222.600 152.585 220.519 152.393 C 219.375 152.287,218.585 152.347,218.765 152.526 M226.200 153.795 C 227.300 154.094,228.720 154.537,229.355 154.780 C 229.991 155.023,230.586 155.147,230.678 155.055 C 230.931 154.803,225.964 153.196,225.022 153.226 C 224.570 153.241,225.100 153.497,226.200 153.795 M241.000 155.035 C 242.540 156.043,244.249 157.258,244.797 157.734 L 245.794 158.600 245.025 157.688 C 244.237 156.755,239.077 153.199,238.513 153.201 C 238.341 153.201,239.460 154.027,241.000 155.035 M163.263 156.207 C 160.235 158.485,158.961 159.600,159.389 159.600 C 159.524 159.600,160.717 158.699,162.040 157.599 C 163.362 156.498,164.974 155.323,165.622 154.988 C 166.764 154.398,167.117 154.000,166.498 154.000 C 166.332 154.000,164.876 154.993,163.263 156.207 M233.600 156.653 C 235.030 157.447,236.740 158.449,237.400 158.881 L 238.600 159.666 237.400 158.637 C 236.170 157.582,231.961 155.196,231.344 155.205 C 231.155 155.207,232.170 155.859,233.600 156.653 M178.742 160.299 C 175.443 163.738,171.984 168.779,172.009 170.112 C 172.014 170.380,172.629 169.467,173.375 168.083 C 175.063 164.949,176.342 163.250,179.283 160.229 C 180.553 158.925,181.533 157.800,181.462 157.729 C 181.391 157.657,180.166 158.814,178.742 160.299 M211.762 158.062 C 211.588 158.344,211.652 158.415,211.926 158.245 C 212.174 158.092,212.967 158.255,213.688 158.608 L 215.000 159.248 214.000 158.433 C 212.863 157.506,212.176 157.392,211.762 158.062 M209.000 159.431 C 208.120 159.957,207.542 160.390,207.716 160.393 C 208.154 160.403,211.200 158.828,211.200 158.592 C 211.200 158.243,210.618 158.464,209.000 159.431 M246.016 158.460 C 246.007 158.603,246.588 159.323,247.308 160.060 C 248.027 160.797,249.212 162.120,249.942 163.000 C 250.839 164.082,250.999 164.192,250.436 163.340 C 249.453 161.854,246.039 158.084,246.016 158.460 M215.200 159.390 C 215.200 159.494,215.785 159.865,216.500 160.214 L 217.800 160.848 216.800 160.033 C 215.837 159.248,215.200 158.992,215.200 159.390 M238.812 159.684 C 238.805 159.840,239.711 160.820,240.824 161.862 C 241.938 162.903,243.583 164.890,244.480 166.278 C 246.349 169.168,246.887 169.595,245.526 167.110 C 244.649 165.508,238.838 159.081,238.812 159.684 M156.349 162.718 C 154.645 164.930,153.196 167.422,153.211 168.112 C 153.217 168.380,153.781 167.569,154.464 166.310 C 155.147 165.050,156.327 163.295,157.085 162.410 C 157.842 161.524,158.313 160.808,158.131 160.817 C 157.949 160.826,157.147 161.682,156.349 162.718 M205.800 161.348 C 205.360 161.606,203.515 162.684,201.700 163.744 C 199.885 164.803,198.400 165.757,198.400 165.864 C 198.400 166.085,202.457 163.842,204.062 162.733 C 204.646 162.330,205.276 161.994,205.462 161.987 C 205.648 161.980,206.149 161.710,206.576 161.387 C 207.489 160.697,206.955 160.670,205.800 161.348 M218.500 161.232 C 218.885 161.456,219.214 161.946,219.232 162.320 C 219.252 162.758,219.337 162.817,219.469 162.487 C 219.709 161.891,218.911 160.794,218.251 160.812 C 218.003 160.819,218.115 161.008,218.500 161.232 M215.300 164.626 C 214.365 165.187,213.600 165.740,213.600 165.855 C 213.600 166.071,216.299 164.538,216.980 163.936 C 217.667 163.328,217.027 163.591,215.300 164.626 M196.400 166.833 L 195.400 167.648 196.700 167.014 C 197.415 166.665,198.000 166.294,198.000 166.190 C 198.000 165.792,197.363 166.048,196.400 166.833 M252.291 166.700 C 252.786 168.002,253.595 169.403,253.598 168.961 C 253.600 168.463,252.424 166.000,252.183 166.000 C 252.096 166.000,252.145 166.315,252.291 166.700 M211.100 167.029 C 209.605 167.840,209.696 168.178,211.200 167.400 C 211.860 167.059,212.400 166.694,212.400 166.590 C 212.400 166.332,212.357 166.347,211.100 167.029 M160.792 168.100 C 160.382 168.946,160.392 168.955,160.957 168.252 C 161.403 167.697,161.849 167.570,162.680 167.764 C 163.507 167.956,163.643 167.918,163.200 167.618 C 162.214 166.951,161.256 167.143,160.792 168.100 M193.281 168.572 C 191.321 169.958,191.185 170.265,193.000 169.205 C 194.878 168.110,195.525 167.591,194.980 167.620 C 194.771 167.630,194.007 168.059,193.281 168.572 M165.962 170.200 C 168.800 173.362,169.547 174.000,170.405 174.000 C 171.073 174.000,172.047 172.158,171.970 171.040 C 171.953 170.798,171.712 171.230,171.434 172.000 C 170.632 174.223,169.585 173.935,166.999 170.778 C 166.558 170.240,165.660 169.350,165.003 168.800 C 164.346 168.250,164.777 168.880,165.962 170.200 M207.900 168.827 C 205.999 169.831,205.896 170.821,207.700 170.746 C 208.640 170.706,208.751 170.643,208.100 170.518 C 206.865 170.280,206.972 169.738,208.400 169.000 C 209.060 168.659,209.600 168.294,209.600 168.190 C 209.600 167.930,209.595 167.932,207.900 168.827 M222.600 168.814 C 221.902 169.001,222.905 169.042,225.000 168.914 C 226.980 168.793,228.675 168.628,228.767 168.547 C 229.085 168.267,223.794 168.496,222.600 168.814 M233.777 170.199 C 235.514 171.189,236.998 171.935,237.077 171.857 C 237.274 171.660,231.597 168.400,231.057 168.400 C 230.816 168.400,232.040 169.210,233.777 170.199 M159.401 170.883 C 157.650 175.187,157.246 178.835,158.147 182.217 C 158.713 184.342,160.004 187.330,160.250 187.084 C 160.329 187.004,160.056 186.233,159.643 185.369 C 157.662 181.235,157.663 175.919,159.644 171.298 C 160.071 170.302,160.348 169.415,160.260 169.327 C 160.172 169.239,159.786 169.939,159.401 170.883 M212.400 169.741 C 210.530 169.977,209.450 170.222,210.000 170.285 C 210.550 170.347,212.980 170.151,215.400 169.848 C 218.040 169.518,219.000 169.300,217.800 169.304 C 216.700 169.308,214.270 169.505,212.400 169.741 M246.416 169.200 C 246.408 169.310,246.790 170.390,247.266 171.600 C 247.930 173.287,248.140 174.706,248.166 177.684 C 248.201 181.683,248.722 181.941,248.772 177.984 C 248.806 175.281,246.589 167.014,246.416 169.200 M189.497 170.766 C 187.898 171.791,187.603 172.206,189.000 171.466 C 190.676 170.577,191.471 170.008,191.000 170.035 C 190.780 170.048,190.104 170.377,189.497 170.766 M237.964 172.510 C 238.757 173.532,238.845 173.513,230.987 174.066 C 227.034 174.344,224.149 174.643,224.576 174.730 C 225.667 174.952,238.073 173.999,238.708 173.644 C 239.102 173.423,239.008 173.162,238.322 172.576 C 237.583 171.944,237.516 171.932,237.964 172.510 M254.600 177.400 C 254.600 180.328,254.732 182.516,254.894 182.262 C 255.056 182.008,255.188 179.820,255.188 177.400 C 255.188 174.980,255.056 172.792,254.894 172.538 C 254.732 172.284,254.600 174.472,254.600 177.400 M151.044 175.703 C 150.860 176.529,150.861 178.059,151.045 179.103 L 151.380 181.000 151.513 179.300 C 151.586 178.365,151.586 176.835,151.512 175.900 L 151.378 174.200 151.044 175.703 M217.600 175.200 L 214.600 175.456 217.200 175.505 C 218.630 175.532,220.520 175.405,221.400 175.223 C 223.354 174.819,222.154 174.812,217.600 175.200 M181.010 175.724 C 178.725 177.101,177.457 177.999,177.807 177.991 C 178.023 177.986,178.650 177.630,179.200 177.200 C 179.750 176.770,180.380 176.408,180.600 176.396 C 180.820 176.384,181.349 176.110,181.776 175.787 C 182.699 175.089,182.139 175.043,181.010 175.724 M208.600 175.893 C 207.194 176.097,205.994 177.057,206.014 177.962 C 206.023 178.381,206.217 178.257,206.579 177.600 C 207.066 176.715,207.536 176.548,210.664 176.153 C 213.632 175.777,213.847 175.707,212.000 175.713 C 210.790 175.717,209.260 175.798,208.600 175.893 M194.100 176.846 C 192.272 178.016,192.479 178.232,194.396 177.154 C 196.287 176.092,196.724 176.348,196.077 178.138 C 195.815 178.864,195.613 179.804,195.628 180.228 C 195.643 180.653,195.925 180.125,196.253 179.055 C 197.199 175.975,196.530 175.290,194.100 176.846 M175.467 179.067 C 174.486 180.047,177.764 182.471,179.931 182.368 C 180.469 182.343,180.483 182.299,180.000 182.144 C 177.371 181.298,175.563 180.185,175.737 179.520 C 175.940 178.744,175.883 178.650,175.467 179.067 M190.246 179.126 C 190.135 179.305,189.224 179.874,188.220 180.390 C 187.216 180.906,186.465 181.398,186.550 181.484 C 186.709 181.643,189.170 180.343,190.589 179.352 C 191.023 179.048,191.169 178.800,190.913 178.800 C 190.657 178.800,190.357 178.947,190.246 179.126 M205.654 179.400 C 205.619 179.840,205.489 180.650,205.367 181.200 C 205.175 182.063,205.207 182.103,205.598 181.490 C 205.847 181.099,205.977 180.289,205.886 179.690 C 205.778 178.979,205.697 178.879,205.654 179.400 M235.209 181.389 C 234.941 181.712,234.579 182.567,234.407 183.289 C 234.234 184.010,233.969 184.960,233.818 185.400 C 233.635 185.936,233.747 185.870,234.158 185.200 C 234.496 184.650,234.778 183.795,234.786 183.300 C 234.794 182.805,235.160 182.040,235.600 181.600 C 236.040 181.160,236.242 180.800,236.049 180.800 C 235.856 180.800,235.478 181.065,235.209 181.389 M239.318 183.800 C 240.638 185.230,241.792 186.400,241.884 186.400 C 241.976 186.400,241.018 185.230,239.755 183.800 C 238.492 182.370,237.337 181.200,237.189 181.200 C 237.041 181.200,237.999 182.370,239.318 183.800 M184.400 182.000 L 183.400 182.320 184.476 182.360 C 185.068 182.382,185.664 182.220,185.800 182.000 C 186.081 181.545,185.820 181.545,184.400 182.000 M195.049 182.215 C 194.912 182.573,194.816 183.256,194.836 183.733 C 194.862 184.347,194.985 184.208,195.259 183.256 C 195.657 181.872,195.494 181.058,195.049 182.215 M151.612 182.400 C 151.612 182.730,151.787 183.270,152.000 183.600 C 152.345 184.133,152.388 184.133,152.388 183.600 C 152.388 183.270,152.213 182.730,152.000 182.400 C 151.655 181.867,151.612 181.867,151.612 182.400 M247.029 183.261 C 246.683 183.955,246.400 184.625,246.400 184.750 C 246.400 185.097,247.433 183.494,247.721 182.700 C 248.136 181.555,247.706 181.904,247.029 183.261 M204.622 184.222 C 204.472 185.025,204.428 185.762,204.526 185.860 C 204.624 185.957,204.827 185.381,204.978 184.578 C 205.128 183.775,205.172 183.038,205.074 182.940 C 204.976 182.843,204.773 183.419,204.622 184.222 M254.046 183.467 C 254.021 183.724,253.884 184.264,253.741 184.667 C 253.540 185.236,253.594 185.297,253.979 184.942 C 254.252 184.691,254.389 184.151,254.284 183.742 C 254.179 183.334,254.072 183.210,254.046 183.467 M194.249 185.815 C 194.112 186.173,194.016 186.856,194.036 187.333 C 194.062 187.947,194.185 187.808,194.459 186.856 C 194.857 185.472,194.694 184.658,194.249 185.815 M245.271 186.389 C 244.754 187.088,244.619 187.491,244.942 187.367 C 245.403 187.190,246.620 185.200,246.267 185.200 C 246.203 185.200,245.755 185.735,245.271 186.389 M252.058 188.202 C 249.477 193.187,243.881 198.276,237.011 201.888 C 233.295 203.842,233.217 204.206,236.911 202.349 C 244.119 198.725,254.403 188.572,253.517 185.956 C 253.453 185.766,252.796 186.777,252.058 188.202 M153.209 186.833 C 153.214 187.145,153.585 187.850,154.033 188.400 L 154.848 189.400 154.173 188.000 C 153.348 186.288,153.197 186.106,153.209 186.833 M203.616 188.668 C 202.279 195.532,202.444 195.342,199.349 193.571 C 198.167 192.894,197.200 192.441,197.200 192.563 C 197.200 192.950,201.372 195.192,202.100 195.196 C 202.490 195.198,202.800 194.903,202.800 194.528 C 202.800 194.159,202.969 193.304,203.176 192.628 C 203.871 190.356,204.531 186.797,204.299 186.566 C 204.173 186.440,203.866 187.386,203.616 188.668 M232.791 186.900 C 232.786 187.175,232.430 187.850,232.000 188.400 C 231.239 189.373,230.836 190.572,231.536 189.780 C 232.422 188.777,233.616 186.400,233.233 186.400 C 232.995 186.400,232.796 186.625,232.791 186.900 M161.625 189.500 C 162.530 190.712,167.735 195.598,167.922 195.411 C 168.020 195.313,167.493 194.739,166.750 194.136 C 164.948 192.673,162.000 189.575,162.000 189.144 C 162.000 188.955,161.798 188.800,161.551 188.800 C 161.247 188.800,161.271 189.026,161.625 189.500 M193.654 189.626 C 193.612 190.433,193.942 190.845,195.200 191.552 C 197.148 192.647,197.349 192.403,195.432 191.272 C 194.667 190.820,193.986 190.054,193.887 189.532 C 193.716 188.637,193.707 188.641,193.654 189.626 M154.813 189.759 C 154.799 190.157,157.245 193.246,158.804 194.800 C 161.469 197.453,161.875 197.454,159.384 194.800 C 157.835 193.150,156.176 191.260,155.697 190.600 C 155.217 189.940,154.820 189.561,154.813 189.759 M230.396 190.633 C 230.383 191.846,222.726 198.739,218.700 201.162 C 217.875 201.659,217.200 202.159,217.200 202.273 C 217.200 202.684,220.421 200.551,223.679 197.982 C 227.077 195.303,231.118 190.984,230.657 190.524 C 230.516 190.382,230.398 190.432,230.396 190.633 M168.600 195.890 C 168.820 196.100,169.720 196.676,170.600 197.170 C 171.480 197.665,171.840 197.770,171.400 197.404 C 170.506 196.661,167.972 195.291,168.600 195.890 M162.588 197.981 C 162.916 198.511,167.788 201.696,168.921 202.121 C 169.354 202.283,169.544 202.233,169.397 201.995 C 169.263 201.778,168.975 201.600,168.758 201.600 C 168.541 201.600,166.998 200.678,165.329 199.552 C 163.659 198.425,162.426 197.718,162.588 197.981 M175.800 199.809 C 176.900 200.327,178.070 200.754,178.400 200.759 C 178.730 200.763,177.934 200.324,176.632 199.783 C 173.654 198.547,173.153 198.562,175.800 199.809 M179.600 201.200 C 179.930 201.413,180.560 201.578,181.000 201.566 L 181.800 201.544 181.000 201.200 C 179.804 200.686,178.805 200.686,179.600 201.200 M182.033 201.747 C 182.125 201.828,182.920 202.014,183.800 202.162 C 184.946 202.354,185.230 202.314,184.800 202.021 C 184.260 201.653,181.632 201.393,182.033 201.747 M170.000 202.556 C 170.000 202.836,173.379 204.308,175.984 205.164 C 180.043 206.496,179.771 206.093,175.600 204.596 C 173.510 203.845,171.487 203.044,171.105 202.816 C 170.379 202.381,170.000 202.292,170.000 202.556 M214.262 203.931 C 213.267 205.031,214.600 207.611,216.155 207.596 C 216.400 207.593,216.015 207.130,215.300 206.567 C 213.773 205.363,213.670 204.677,214.889 203.823 C 215.378 203.480,215.586 203.200,215.351 203.200 C 215.116 203.200,214.626 203.529,214.262 203.931 M227.600 205.600 C 226.776 205.864,226.741 205.926,227.400 205.954 C 227.840 205.973,228.470 205.813,228.800 205.600 C 229.501 205.147,229.014 205.147,227.600 205.600 M189.211 206.579 C 188.916 207.130,188.231 207.628,187.644 207.719 L 186.600 207.880 187.654 207.940 C 188.615 207.995,190.400 206.266,189.899 205.766 C 189.809 205.675,189.499 206.041,189.211 206.579 M180.200 206.400 C 180.640 206.589,181.360 206.744,181.800 206.744 L 182.600 206.744 181.800 206.400 C 181.360 206.211,180.640 206.056,180.200 206.056 L 179.400 206.056 180.200 206.400 M224.400 206.400 C 223.605 206.914,224.604 206.914,225.800 206.400 L 226.600 206.056 225.800 206.034 C 225.360 206.022,224.730 206.187,224.400 206.400 M183.600 207.200 C 184.150 207.376,185.050 207.520,185.600 207.520 L 186.600 207.520 185.600 207.200 C 185.050 207.024,184.150 206.880,183.600 206.880 L 182.600 206.880 183.600 207.200 M220.600 207.200 L 219.800 207.544 220.600 207.532 C 221.040 207.526,221.850 207.376,222.400 207.200 L 223.400 206.880 222.400 206.868 C 221.850 206.862,221.040 207.011,220.600 207.200 M217.505 207.883 C 218.002 207.979,218.722 207.975,219.105 207.875 C 219.487 207.775,219.080 207.696,218.200 207.701 C 217.320 207.705,217.007 207.787,217.505 207.883 M141.304 234.325 C 139.698 235.182,137.198 237.503,137.204 238.132 C 137.207 238.390,137.670 238.015,138.234 237.300 C 138.797 236.585,140.026 235.550,140.964 235.000 L 142.670 234.000 202.951 234.000 C 270.957 234.000,264.780 233.706,267.561 237.080 C 268.243 237.906,268.800 238.398,268.800 238.172 C 268.800 237.563,265.989 234.983,264.520 234.244 C 262.479 233.217,143.234 233.295,141.304 234.325 M152.912 238.295 C 153.964 238.377,155.584 238.376,156.512 238.292 C 157.440 238.208,156.580 238.141,154.600 238.142 C 152.620 238.143,151.860 238.212,152.912 238.295 M170.112 238.295 C 171.164 238.377,172.784 238.376,173.712 238.292 C 174.640 238.208,173.780 238.141,171.800 238.142 C 169.820 238.143,169.060 238.212,170.112 238.295 M186.912 238.295 C 187.964 238.377,189.584 238.376,190.512 238.292 C 191.440 238.208,190.580 238.141,188.600 238.142 C 186.620 238.143,185.860 238.212,186.912 238.295 M203.712 238.295 C 204.764 238.377,206.384 238.376,207.312 238.292 C 208.240 238.208,207.380 238.141,205.400 238.142 C 203.420 238.143,202.660 238.212,203.712 238.295 M243.600 238.800 C 243.930 239.013,244.560 239.178,245.000 239.166 L 245.800 239.144 245.000 238.800 C 243.804 238.286,242.805 238.286,243.600 238.800 M150.192 252.167 C 150.199 263.882,150.282 265.756,150.800 265.897 C 151.239 266.017,151.267 265.967,150.905 265.710 C 150.534 265.447,150.383 262.040,150.297 251.980 L 150.183 238.600 150.192 252.167 M176.179 252.200 C 176.179 259.460,176.233 262.486,176.299 258.925 C 176.365 255.364,176.366 249.424,176.299 245.725 C 176.233 242.026,176.179 244.940,176.179 252.200 M200.979 252.200 C 200.979 259.460,201.033 262.486,201.099 258.925 C 201.165 255.364,201.166 249.424,201.099 245.725 C 201.033 242.026,200.979 244.940,200.979 252.200 M248.000 240.096 C 248.000 240.179,249.035 241.124,250.300 242.195 C 251.777 243.446,252.171 243.675,251.400 242.835 C 250.262 241.595,248.000 239.773,248.000 240.096 M229.584 244.423 C 229.105 245.096,228.779 245.713,228.861 245.794 C 228.943 245.876,229.414 245.326,229.908 244.571 C 231.023 242.871,230.771 242.756,229.584 244.423 M254.006 247.833 C 254.009 248.255,254.195 248.870,254.418 249.200 C 254.715 249.638,254.752 249.476,254.556 248.600 C 254.227 247.129,253.998 246.810,254.006 247.833 M227.456 249.284 C 227.321 249.788,227.228 250.650,227.249 251.200 C 227.272 251.789,227.431 251.471,227.636 250.425 C 228.003 248.552,227.873 247.727,227.456 249.284 M254.914 252.200 C 254.917 253.300,254.995 253.703,255.087 253.095 C 255.179 252.486,255.177 251.586,255.082 251.095 C 254.987 250.603,254.911 251.100,254.914 252.200 M227.206 253.433 C 227.209 254.075,227.384 254.870,227.595 255.200 C 227.855 255.609,227.899 255.290,227.732 254.200 C 227.429 252.223,227.198 251.886,227.206 253.433 M254.273 254.953 C 254.123 255.345,254.011 255.966,254.025 256.333 C 254.042 256.775,254.181 256.674,254.437 256.034 C 254.649 255.503,254.761 254.882,254.685 254.654 C 254.609 254.427,254.424 254.561,254.273 254.953 M228.032 256.639 C 227.990 257.221,229.148 259.521,229.635 259.822 C 229.847 259.952,229.684 259.461,229.275 258.730 C 228.865 257.998,228.425 257.130,228.297 256.800 C 228.168 256.470,228.049 256.397,228.032 256.639 M251.981 260.235 C 251.335 261.443,249.265 263.144,247.000 264.328 C 246.120 264.788,245.631 265.173,245.914 265.182 C 246.987 265.219,251.172 262.125,252.420 260.372 C 252.879 259.728,253.093 259.200,252.895 259.200 C 252.697 259.200,252.286 259.666,251.981 260.235 M233.000 263.365 C 233.660 263.932,234.365 264.397,234.567 264.398 C 235.001 264.400,234.996 264.396,233.200 263.237 L 231.800 262.334 233.000 263.365 M237.800 265.600 C 238.240 265.789,238.870 265.944,239.200 265.944 C 239.578 265.944,239.504 265.817,239.000 265.600 C 238.560 265.411,237.930 265.256,237.600 265.256 C 237.222 265.256,237.296 265.383,237.800 265.600 M243.400 265.600 C 242.896 265.817,242.822 265.944,243.200 265.944 C 243.530 265.944,244.160 265.789,244.600 265.600 C 245.104 265.383,245.178 265.256,244.800 265.256 C 244.470 265.256,243.840 265.411,243.400 265.600 M264.400 268.800 C 263.630 269.222,263.144 269.574,263.320 269.583 C 263.744 269.605,266.000 268.432,266.000 268.190 C 266.000 267.928,265.977 267.937,264.400 268.800 " stroke="none" fill="#f59b61" fill-rule="evenodd"></path><path id="path4" d="M184.400 147.594 C 182.970 147.983,181.284 148.423,180.653 148.570 C 180.022 148.718,179.597 148.930,179.708 149.042 C 179.820 149.153,181.811 148.778,184.133 148.207 C 189.300 146.938,192.743 147.873,191.821 150.295 C 191.608 150.854,191.655 150.898,192.048 150.508 C 193.193 149.372,190.403 146.757,188.138 146.843 C 187.512 146.867,185.830 147.205,184.400 147.594 M217.051 147.858 C 215.439 149.597,216.985 152.400,219.556 152.400 C 219.869 152.400,219.333 151.980,218.363 151.468 C 214.217 149.275,216.824 146.841,222.000 148.072 C 236.317 151.477,245.371 156.765,250.796 164.889 C 251.678 166.210,252.400 167.102,252.400 166.870 C 252.400 166.094,247.711 160.217,245.800 158.600 C 239.786 153.508,234.110 150.766,224.200 148.163 C 218.113 146.564,218.246 146.569,217.051 147.858 M175.576 150.157 C 166.419 153.332,158.503 159.286,154.644 165.900 C 153.909 167.160,154.811 166.218,155.793 164.700 C 158.312 160.806,165.070 155.241,170.200 152.836 C 173.252 151.405,173.593 151.266,176.600 150.227 C 178.140 149.695,179.130 149.257,178.800 149.253 C 178.470 149.250,177.019 149.656,175.576 150.157 M189.900 151.429 C 188.405 152.240,188.496 152.578,190.000 151.800 C 190.660 151.459,191.200 151.094,191.200 150.990 C 191.200 150.732,191.157 150.747,189.900 151.429 M223.200 152.800 C 224.742 153.294,225.564 153.294,224.800 152.800 C 224.470 152.587,223.750 152.427,223.200 152.446 L 222.200 152.480 223.200 152.800 M228.833 154.135 C 229.219 154.447,232.400 155.577,232.400 155.402 C 232.400 155.163,229.651 154.000,229.084 154.000 C 228.855 154.000,228.742 154.061,228.833 154.135 M179.883 158.900 C 176.946 161.792,176.882 161.882,179.366 159.626 C 183.731 155.663,183.795 155.600,183.507 155.600 C 183.358 155.600,181.727 157.085,179.883 158.900 M209.680 159.475 C 208.294 160.255,207.237 160.970,207.330 161.064 C 207.424 161.157,208.600 160.589,209.945 159.801 L 212.389 158.368 214.242 159.403 C 215.262 159.972,216.165 160.368,216.250 160.283 C 216.397 160.136,212.648 157.970,212.346 158.028 C 212.266 158.043,211.066 158.694,209.680 159.475 M240.339 160.998 C 241.955 162.510,243.890 164.656,244.639 165.768 C 245.387 166.880,246.000 167.640,246.000 167.456 C 246.000 166.446,240.973 160.765,238.600 159.094 C 237.940 158.629,238.722 159.486,240.339 160.998 M216.800 160.695 C 216.800 160.868,217.205 161.195,217.700 161.420 C 218.195 161.645,218.555 162.048,218.500 162.315 C 218.445 162.582,218.580 162.800,218.800 162.800 C 219.671 162.800,219.131 161.585,218.000 161.000 C 217.340 160.659,216.800 160.521,216.800 160.695 M204.000 162.833 L 203.000 163.648 204.300 163.014 C 205.015 162.665,205.600 162.294,205.600 162.190 C 205.600 161.792,204.963 162.048,204.000 162.833 M216.700 163.429 C 215.205 164.240,215.296 164.578,216.800 163.800 C 217.460 163.459,218.000 163.094,218.000 162.990 C 218.000 162.732,217.957 162.747,216.700 163.429 M194.600 168.260 C 190.200 170.815,185.770 173.377,184.756 173.953 C 183.742 174.529,182.482 175.327,181.956 175.726 C 181.026 176.433,181.949 175.969,185.600 173.897 C 186.370 173.459,188.440 172.289,190.200 171.296 C 191.960 170.303,193.850 169.182,194.400 168.806 C 194.950 168.430,196.390 167.580,197.600 166.918 C 201.651 164.701,203.412 163.558,202.700 163.607 C 202.645 163.611,199.000 165.704,194.600 168.260 M213.300 165.426 C 211.412 166.558,210.977 167.149,212.700 166.241 C 213.909 165.603,215.516 164.431,215.200 164.417 C 215.090 164.412,214.235 164.866,213.300 165.426 M161.023 167.163 C 160.900 167.362,161.138 167.437,161.553 167.328 C 162.392 167.109,164.378 168.010,165.178 168.974 C 165.464 169.318,165.870 169.600,166.080 169.600 C 166.543 169.600,164.542 167.899,163.326 167.259 C 162.276 166.707,161.329 166.668,161.023 167.163 M209.600 167.636 C 208.936 168.179,208.869 168.315,209.400 168.040 C 210.705 167.366,211.428 166.812,211.000 166.815 C 210.780 166.817,210.150 167.186,209.600 167.636 M159.781 169.237 C 159.429 169.918,159.212 170.545,159.299 170.632 C 159.386 170.719,159.756 170.162,160.122 169.395 C 160.944 167.670,160.659 167.538,159.781 169.237 M152.888 169.487 C 151.784 172.415,151.605 173.635,151.672 177.760 L 151.744 182.200 151.993 177.200 C 152.147 174.122,152.497 171.514,152.904 170.416 C 153.267 169.434,153.507 168.573,153.436 168.503 C 153.365 168.432,153.119 168.875,152.888 169.487 M221.200 169.241 C 219.330 169.424,216.540 169.751,215.000 169.966 L 212.200 170.358 215.200 170.196 C 220.002 169.936,226.876 169.257,227.114 169.019 C 227.389 168.745,225.570 168.813,221.200 169.241 M231.800 169.388 C 232.240 169.751,233.635 170.602,234.900 171.280 C 237.393 172.615,237.692 173.050,236.300 173.318 C 235.756 173.422,236.007 173.513,236.933 173.546 C 238.736 173.610,238.752 172.978,236.973 171.981 C 233.149 169.838,231.102 168.812,231.800 169.388 M206.015 169.782 C 205.309 170.633,205.864 171.209,207.324 171.140 C 208.587 171.081,208.588 171.078,207.461 170.910 C 206.569 170.776,206.366 170.573,206.524 169.970 C 206.765 169.048,206.657 169.008,206.015 169.782 M171.473 170.153 C 171.323 170.545,171.211 171.166,171.225 171.533 C 171.242 171.975,171.381 171.874,171.637 171.234 C 171.849 170.703,171.961 170.082,171.885 169.854 C 171.809 169.627,171.624 169.761,171.473 170.153 M209.500 170.682 C 209.995 170.778,210.805 170.778,211.300 170.682 C 211.795 170.587,211.390 170.509,210.400 170.509 C 209.410 170.509,209.005 170.587,209.500 170.682 M254.277 173.400 C 254.400 174.720,254.568 175.875,254.650 175.967 C 254.918 176.264,254.715 173.434,254.380 172.200 C 254.165 171.411,254.130 171.822,254.277 173.400 M170.800 172.780 C 170.800 173.096,170.493 173.213,169.999 173.084 C 169.559 172.969,169.300 173.038,169.423 173.237 C 169.546 173.437,169.896 173.600,170.200 173.600 C 170.833 173.600,171.398 172.865,171.040 172.507 C 170.908 172.375,170.800 172.498,170.800 172.780 M157.849 174.215 C 157.712 174.573,157.616 175.256,157.636 175.733 C 157.662 176.347,157.785 176.208,158.059 175.256 C 158.457 173.872,158.294 173.058,157.849 174.215 M228.000 173.990 C 227.450 174.161,228.710 174.208,230.800 174.095 C 232.890 173.982,234.675 173.825,234.767 173.745 C 235.090 173.463,228.986 173.684,228.000 173.990 M248.701 176.600 C 248.849 179.011,248.736 180.185,248.244 181.361 C 247.884 182.220,247.677 183.010,247.784 183.117 C 248.621 183.954,249.531 177.118,248.891 174.800 C 248.589 173.706,248.547 174.098,248.701 176.600 M218.400 174.800 C 216.220 175.067,216.216 175.070,218.000 175.095 C 218.990 175.109,220.790 174.984,222.000 174.817 C 224.161 174.518,224.168 174.513,222.400 174.522 C 221.410 174.526,219.610 174.652,218.400 174.800 M211.507 175.490 C 212.226 175.579,213.306 175.577,213.907 175.486 C 214.508 175.395,213.920 175.322,212.600 175.324 C 211.280 175.326,210.788 175.401,211.507 175.490 M179.200 177.233 L 178.200 178.048 179.500 177.414 C 180.215 177.065,180.800 176.694,180.800 176.590 C 180.800 176.192,180.163 176.448,179.200 177.233 M175.738 179.417 C 175.378 180.355,175.767 180.466,176.319 179.582 C 176.628 179.087,176.654 178.800,176.391 178.800 C 176.162 178.800,175.868 179.078,175.738 179.417 M254.246 180.747 C 254.089 181.927,254.046 182.979,254.150 183.083 C 254.417 183.350,254.922 179.764,254.707 179.125 C 254.611 178.836,254.403 179.566,254.246 180.747 M157.646 181.600 C 157.627 182.150,157.787 182.870,158.000 183.200 C 158.494 183.964,158.494 183.142,158.000 181.600 L 157.680 180.600 157.646 181.600 M195.654 181.467 C 195.625 181.944,195.496 182.664,195.370 183.067 C 195.152 183.761,195.164 183.762,195.596 183.088 C 195.847 182.697,195.975 181.977,195.881 181.488 C 195.709 180.601,195.709 180.601,195.654 181.467 M235.214 181.974 C 234.986 182.399,234.818 183.074,234.841 183.474 C 234.864 183.887,235.059 183.648,235.293 182.919 C 235.520 182.215,235.996 181.561,236.352 181.466 C 236.917 181.315,236.912 181.287,236.314 181.246 C 235.937 181.221,235.442 181.548,235.214 181.974 M237.200 181.767 C 237.200 182.188,238.405 183.328,238.621 183.112 C 238.722 183.011,238.444 182.602,238.002 182.202 C 237.561 181.803,237.200 181.607,237.200 181.767 M181.100 182.282 C 181.595 182.378,182.405 182.378,182.900 182.282 C 183.395 182.187,182.990 182.109,182.000 182.109 C 181.010 182.109,180.605 182.187,181.100 182.282 M204.249 184.215 C 204.112 184.573,204.018 185.256,204.041 185.733 C 204.067 186.281,204.203 186.086,204.410 185.203 C 204.760 183.716,204.665 183.133,204.249 184.215 M238.800 183.835 C 238.800 185.140,243.958 188.265,245.102 187.652 C 245.843 187.256,247.756 184.023,247.438 183.705 C 247.338 183.604,246.859 184.305,246.374 185.261 C 244.941 188.088,243.885 188.098,240.789 185.314 C 239.695 184.331,238.800 183.665,238.800 183.835 M194.429 187.005 C 193.845 189.941,193.970 190.559,195.277 191.201 C 196.166 191.637,196.164 191.624,195.219 190.864 C 194.249 190.083,194.244 190.046,194.766 187.418 C 195.057 185.957,195.216 184.682,195.120 184.586 C 195.023 184.490,194.713 185.578,194.429 187.005 M233.135 187.134 C 230.043 192.758,224.316 198.295,217.467 202.284 C 213.892 204.365,213.512 204.920,214.830 206.133 C 215.697 206.932,215.717 206.935,215.085 206.169 C 214.030 204.888,214.175 204.687,217.632 202.630 C 224.916 198.297,231.005 192.316,233.853 186.695 C 235.346 183.748,234.819 184.071,233.135 187.134 M159.200 186.222 C 159.200 187.647,164.941 193.903,168.456 196.308 C 173.274 199.604,181.519 202.742,185.481 202.786 C 188.374 202.818,190.069 204.512,188.937 206.240 C 188.331 207.164,188.074 207.248,186.431 207.055 C 185.135 206.903,184.892 206.940,185.600 207.180 C 187.729 207.904,188.633 207.676,189.417 206.220 C 190.659 203.914,189.233 202.896,183.549 202.029 C 174.643 200.672,164.375 194.342,160.629 187.900 C 159.607 186.142,159.200 185.665,159.200 186.222 M154.606 188.707 C 155.227 189.866,155.975 191.013,156.268 191.256 C 156.561 191.500,156.178 190.663,155.415 189.398 C 153.613 186.404,153.170 186.026,154.606 188.707 M203.449 187.415 C 203.312 187.773,203.218 188.456,203.241 188.933 C 203.267 189.481,203.403 189.286,203.610 188.403 C 203.960 186.916,203.865 186.333,203.449 187.415 M251.400 188.800 C 251.059 189.460,250.869 190.000,250.979 190.000 C 251.089 190.000,251.459 189.460,251.800 188.800 C 252.141 188.140,252.331 187.600,252.221 187.600 C 252.111 187.600,251.741 188.140,251.400 188.800 M248.077 193.200 C 246.689 194.736,244.394 196.820,242.977 197.832 C 240.006 199.951,239.462 200.680,242.300 198.738 C 244.573 197.183,248.035 193.974,249.679 191.900 C 251.504 189.596,250.863 190.116,248.077 193.200 M202.673 191.353 C 202.523 191.745,202.411 192.366,202.425 192.733 C 202.442 193.175,202.581 193.074,202.837 192.434 C 203.049 191.903,203.161 191.282,203.085 191.054 C 203.009 190.827,202.824 190.961,202.673 191.353 M196.400 191.779 C 196.400 191.889,196.940 192.259,197.600 192.600 C 198.260 192.941,198.800 193.131,198.800 193.021 C 198.800 192.911,198.260 192.541,197.600 192.200 C 196.940 191.859,196.400 191.669,196.400 191.779 M159.000 194.344 C 160.320 195.732,162.210 197.401,163.200 198.052 C 164.190 198.703,164.462 198.822,163.804 198.318 C 163.146 197.813,161.256 196.144,159.604 194.610 L 156.600 191.820 159.000 194.344 M199.200 193.419 C 199.200 193.713,201.649 194.850,202.009 194.724 C 202.204 194.656,201.651 194.298,200.782 193.930 C 199.912 193.561,199.200 193.331,199.200 193.419 M238.700 200.629 C 237.205 201.440,237.296 201.778,238.800 201.000 C 239.460 200.659,240.000 200.294,240.000 200.190 C 240.000 199.932,239.957 199.947,238.700 200.629 M233.700 203.034 C 232.985 203.346,232.400 203.694,232.400 203.807 C 232.400 204.015,235.206 202.927,235.546 202.587 C 235.886 202.247,235.020 202.457,233.700 203.034 M178.000 205.400 C 178.770 205.697,179.760 205.941,180.200 205.943 C 180.640 205.945,180.190 205.691,179.200 205.379 C 176.939 204.667,176.133 204.681,178.000 205.400 M227.800 205.200 C 227.296 205.417,227.222 205.544,227.600 205.544 C 227.930 205.544,228.560 205.389,229.000 205.200 C 229.504 204.983,229.578 204.856,229.200 204.856 C 228.870 204.856,228.240 205.011,227.800 205.200 M181.800 206.381 C 182.568 206.729,184.710 206.956,184.367 206.653 C 184.275 206.572,183.480 206.396,182.600 206.262 C 181.485 206.093,181.242 206.129,181.800 206.381 M223.000 206.400 C 221.893 206.682,221.877 206.709,222.800 206.747 C 223.350 206.769,224.070 206.613,224.400 206.400 C 225.081 205.960,224.729 205.960,223.000 206.400 M216.263 207.300 C 216.500 207.686,219.558 207.638,220.599 207.232 C 221.094 207.039,220.387 206.935,218.738 206.960 C 217.276 206.982,216.162 207.135,216.263 207.300 M140.739 235.152 C 139.063 236.216,137.200 238.269,137.200 239.055 C 137.200 239.237,137.636 238.744,138.170 237.959 C 139.255 236.361,140.574 235.390,142.738 234.594 C 143.714 234.235,143.927 234.047,143.378 234.028 C 142.926 234.013,141.739 234.519,140.739 235.152 M263.111 234.588 C 268.608 236.304,269.200 237.974,269.200 251.747 C 269.200 264.003,269.105 264.539,266.486 267.087 C 265.622 267.927,265.364 268.338,265.869 268.069 C 266.975 267.478,268.313 265.781,269.036 264.051 C 269.869 262.058,269.851 241.499,269.015 239.497 C 267.802 236.595,264.576 233.961,262.316 234.027 C 261.714 234.044,261.986 234.237,263.111 234.588 M158.500 238.252 C 159.149 238.444,159.200 239.461,159.200 252.254 L 159.200 266.048 154.618 265.924 C 152.099 265.856,150.179 265.941,150.353 266.114 C 150.526 266.287,152.633 266.377,155.034 266.314 L 159.400 266.200 159.400 252.205 C 159.400 238.505,159.383 238.209,158.600 238.128 C 157.978 238.064,157.956 238.092,158.500 238.252 M166.982 238.503 C 166.876 238.779,166.837 245.124,166.895 252.603 L 167.000 266.200 171.567 266.200 C 174.947 266.200,176.160 266.068,176.237 265.690 C 176.293 265.410,176.249 265.365,176.137 265.590 C 176.016 265.833,174.150 266.000,171.567 266.000 L 167.200 266.000 167.200 252.229 C 167.200 239.451,167.250 238.445,167.900 238.276 C 168.556 238.104,168.555 238.090,167.887 238.046 C 167.496 238.021,167.088 238.226,166.982 238.503 M183.782 238.503 C 183.676 238.779,183.637 245.124,183.695 252.603 L 183.800 266.200 188.501 266.220 L 193.201 266.240 188.601 266.107 L 184.000 265.975 184.000 252.217 C 184.000 239.450,184.050 238.445,184.700 238.276 C 185.356 238.104,185.355 238.090,184.687 238.046 C 184.296 238.021,183.888 238.226,183.782 238.503 M209.300 238.252 C 209.949 238.444,210.000 239.460,210.000 252.229 L 210.000 266.000 205.633 266.000 C 203.050 266.000,201.184 265.833,201.063 265.590 C 200.952 265.365,200.907 265.410,200.963 265.690 C 201.040 266.068,202.253 266.200,205.633 266.200 L 210.200 266.200 210.200 252.205 C 210.200 238.505,210.183 238.209,209.400 238.128 C 208.778 238.064,208.756 238.092,209.300 238.252 M237.424 238.362 C 237.296 238.568,237.930 238.631,238.900 238.507 C 241.152 238.219,241.321 238.000,239.290 238.000 C 238.387 238.000,237.547 238.163,237.424 238.362 M241.233 238.147 C 241.610 238.479,245.168 238.672,244.969 238.350 C 244.850 238.158,243.923 238.000,242.910 238.000 C 241.896 238.000,241.142 238.066,241.233 238.147 M193.380 252.200 C 193.380 259.680,193.434 262.683,193.499 258.874 C 193.565 255.065,193.565 248.945,193.499 245.274 C 193.433 241.603,193.379 244.720,193.380 252.200 M233.400 240.222 C 231.327 241.649,228.791 244.290,228.813 244.996 C 228.820 245.218,229.225 244.864,229.713 244.208 C 231.189 242.226,232.786 240.879,234.924 239.813 C 236.042 239.256,236.607 238.810,236.179 238.822 C 235.750 238.834,234.500 239.464,233.400 240.222 M247.055 239.569 C 249.334 240.604,251.853 242.973,253.234 245.381 C 253.871 246.491,254.394 247.210,254.396 246.978 C 254.415 244.853,248.188 238.778,246.022 238.809 C 245.680 238.814,246.145 239.156,247.055 239.569 M136.643 240.233 C 136.509 240.581,136.400 245.803,136.400 251.837 C 136.400 265.346,136.907 266.930,141.897 269.015 C 144.068 269.922,262.519 269.867,264.000 268.958 C 264.550 268.621,264.640 268.492,264.200 268.672 C 262.505 269.366,143.470 269.272,141.802 268.575 C 137.248 266.672,136.725 264.775,136.879 250.700 C 136.945 244.595,136.974 239.600,136.943 239.600 C 136.911 239.600,136.776 239.885,136.643 240.233 M227.473 247.753 C 227.323 248.145,227.211 248.766,227.225 249.133 C 227.242 249.575,227.381 249.474,227.637 248.834 C 227.849 248.303,227.961 247.682,227.885 247.454 C 227.809 247.227,227.624 247.361,227.473 247.753 M254.446 248.000 C 254.465 248.330,254.624 249.050,254.800 249.600 L 255.120 250.600 255.154 249.600 C 255.173 249.050,255.013 248.330,254.800 248.000 C 254.455 247.467,254.416 247.467,254.446 248.000 M226.924 252.200 C 226.926 253.520,227.001 254.012,227.090 253.293 C 227.179 252.574,227.177 251.494,227.086 250.893 C 226.995 250.292,226.922 250.880,226.924 252.200 M254.350 256.217 C 253.999 257.406,253.842 258.298,254.001 258.199 C 254.354 257.981,255.375 254.441,255.150 254.217 C 255.062 254.128,254.702 255.029,254.350 256.217 M227.234 255.200 C 227.246 255.530,227.411 256.160,227.600 256.600 L 227.944 257.400 227.966 256.600 C 227.978 256.160,227.813 255.530,227.600 255.200 C 227.255 254.667,227.215 254.667,227.234 255.200 M252.200 260.491 C 247.072 267.508,236.716 267.857,230.709 261.214 C 229.607 259.996,228.897 259.360,229.131 259.800 C 231.732 264.699,239.854 267.779,245.201 265.894 C 248.402 264.765,253.600 260.588,253.600 259.144 C 253.600 258.619,253.492 258.723,252.200 260.491 " stroke="none" fill="#fcb47c" fill-rule="evenodd"></path></g></svg>